<svg focusable="false"  xmlns="http://www.w3.org/2000/svg" xmlns:xlink="http://www.w3.org/1999/xlink" id="icon_amc-stubs-logo" viewBox="0 0 122 45" preserveAspectRatio="xMidYMid meet" fill="#ffffff"  width="100px" height="70px"> <path d="M121.994 24.628l-.58-.581-.65.21-.412-.466.58-.28-.481-.5-.679.245-.551-.582.62-.302-.48-.442-.622.302-.615-.64.58-.32-.528-.54a26.8 26.862 0 0 0-2.703 1.96l.876.901a.395.395 0 0 1-.157.67c-7.815 3.622-11.755 11.048-12.938 13.677 0 0-.093.337.18.134 7.64-10.38 16.825-12.852 18.566-13.446m-9.637-6.88l-.644-.511-.551.39-.784-.582.51-.436-.614-.489-.528.425-.737-.54.476-.478-.621-.47-.482.482-.72-.553.413-.529-.65-.448-.412.53-.795-.582.418-.535-.615-.471-.424.535-.795-.582.424-.54-.62-.471-.424.546-.795-.581.43-.553-.622-.47-.412.517-.795-.582.436-.581-.58-.466-.436.582-.795-.582.459-.581-.58-.454-.476.541-.795-.581.499-.53-.62-.47-.5.529-.795-.582.517-.518-.621-.47-.522.523-.795-.582.533-.523-.58-.419c-.522.256-6.382 5.025-7.867 12.649l.684-.035s1.91-5.659 5.802-8.857a.679.68 0 0 1 .83 0l11.204 8.397a.656.657 0 0 1 .122.92 27.368 27.432 0 0 0-6.383 19.714s.1.546.29.035c2.74-13.457 10.444-19.924 11.43-20.669"></path><path d="M121.176 17.44l-.58-.441-.766.255-.627-.488.633-.355-.58-.442-.656.367-.777-.582.644-.384-.58-.413-.645.384-.696-.581.58-.407-.58-.442-.58.407-.79-.582.581-.43-.58-.442-.58.43-.708-.581.464-.477-.58-.442-.465.477-.748-.524.464-.517-.58-.437-.464.518-.708-.535.418-.54-.58-.443-.418.547-.749-.582.418-.546-.58-.442-.418.54-.754-.581.423-.547-.58-.442-.423.541-.784-.581.459-.506-.58-.442-.459.506-.725-.442.458-.512-.58-.465-.545.488a10.055 10.078 0 0 0-1.741 2.187l.754.581.308.227 10.24 7.7a.505.506 0 0 1-.034.831c-7.66 5.147-10.473 13.702-11.204 16.435 0 0-.064.395.203.046 6.765-12.985 17.377-16.864 17.377-16.864m-52.92 19.36a3.62 3.629 0 0 1-1.846.58c-3.063 0-4.757-6.257-5.042-18.609v-.052c0-.814-.046-1.512 5.518-2.966a10.264 10.288 0 0 1 2.565-.366c2.25 0 3.046 1.047 3.052 1.058a.25.25 0 0 0 .197.105.25.25 0 0 0 .203-.39c-.69-2.262-2.582-3.448-5.471-3.448a18.195 18.237 0 0 0-6.174 1.314h-.081a.116.116 0 0 1-.046-.064l-.778-3.861c-.145-.64-.447-1.49-1.416-1.49a2.414 2.42 0 0 0-.673.111c-1.16.35-.94 2.25-.934 2.326.006.076.21 2.263.43 3.28.127.582 0 .82-.151.867-.151.046-4.845 2.157-5.657 2.495-1.039.436-.627 2.053-.29 2.971a.673.675 0 0 0 .73.384c.906 0 2.64-.686 3.9-1.163.522-.21.974-.39 1.16-.436a.545.547 0 0 1 .366 0 .157.157 0 0 1 0 .093.337.337 0 0 0 0 .064c0 .116.499 11.555 2.512 17.004.946 2.553 2.187 3.844 3.696 3.844 1.37 0 2.849-1.052 4.41-3.117.052-.07.08-.11.057-.093a.25.251 0 1 0-.238-.442z"></path><path d="M83.463 19.377c-1.91 0-3.238 1.559-3.62 2.059-.709-5.542-.993-8.305-1.161-9.962a14.865 14.9 0 0 0-.76-4.013v-.07c-.25-.854-.708-2.006-1.665-1.895a.737.739 0 0 0-.58.337 1.323 1.326 0 0 0-.065.994c0 .093 1.202 9.468 1.376 11.358.44 4.71.684 11.962-.186 12.544l-.064.04c-.9-.447-2.152-2.087-1.514-7.844a1.688 1.692 0 0 0-.14-1.257 1.021 1.024 0 0 0-.765-.424c-1.306-.146-1.741.843-2.112 1.954-.07.198-.174.581-.308 1.006-.58 1.89-2.042 6.909-3.284 7.06a.615.616 0 0 1-.615-.25c-.58-.768-.29-2.908.076-4.123a30.374 30.444 0 0 1 1.16-3.176c.714-1.831 1.224-3.146.772-3.995a1.671 1.675 0 0 0-1.236-.773h-.099c-.226 0-1.386.087-1.67 1.832-.059.36-.227.936-.436 1.674-.824 2.844-2.199 7.619-.522 10.602.673 1.198 1.456 1.809 2.32 1.809 2.264 0 4.346-4.38 4.898-5.775 1.16 3.402 2.32 5.13 3.533 5.13.79 0 1.48-.705 2.112-2.153a9.707 9.73 0 0 0 4.247 1.164 5.28 5.292 0 0 0 4.84-3.152c.086-.233 2.1-5.735-1.277-9.107a4.67 4.681 0 0 0-3.255-1.594zm-.337 3.1v-.245.245a2.46 2.466 0 0 1 1.892.727c.922 1.006.766 2.803.707 3.489v.262c0 .331-.353 2.68-1.456 3.809a1.938 1.942 0 0 1-2.071.512s-1.404-.582-1.863-1.466c-.046-.483-.417-4.827 1.16-6.595a2.089 2.094 0 0 1 1.637-.732zm10.589 1.157c-.453-.32-1.601-1.326-1.514-2.117a1.276 1.28 0 0 1 .928-.907 2.245 2.25 0 0 1 .876-.18c1.7 0 2.97 2.035 2.982 2.058a.296.297 0 0 0 .215.117.25.25 0 0 0 .25-.245.244.244 0 0 0 0-.081c-.076-2.326-1.55-3.838-3.754-3.838a5.587 5.6 0 0 0-1.828.325 3.568 3.577 0 0 0-1.851 1.635c-.795 1.651 0 3.489 2.414 5.327l.064.052c.36.256 3.539 2.547 3.643 4.455a2.576 2.582 0 0 1-.58 1.983 2.048 2.053 0 0 1-1.514.581 3.708 3.716 0 0 1-2.321-.884c-1.358-1.163-1.027-3.315-1.021-3.332a.244.244 0 0 0-.366-.256c-.615.425-.922 1.303-.835 2.396.116 1.506.998 3.396 2.46 4.106a5.802 5.815 0 0 0 3.388.407c2.193-.413 3.365-1.826 3.58-4.315.342-3.902-5.001-7.176-5.216-7.287zM15.393 36.748a15.381 15.417 0 1 1 15.37-15.417 15.399 15.434 0 0 1-15.37 15.417zm0-29.514A14.058 14.09 0 1 0 29.45 21.35 14.058 14.09 0 0 0 15.393 7.24z"></path><path d="M27.246 23.675a.476.477 0 1 1 .476.477.47.471 0 0 1-.476-.466zm.888 0a.418.419 0 1 0-.418.418.412.413 0 0 0 .418-.407zm-.18.267h-.092l-.157-.267h-.116v.244h-.04v-.512h.231a.255.256 0 0 1 .128 0 .128.128 0 0 1 .058.117.145.145 0 0 1-.145.145zm-.25-.296c.076 0 .192 0 .192-.1 0-.098-.07-.092-.139-.092h-.145v.186h.093zm-11.847-4.891a3.052 3.059 0 0 1 3.516-.465 2.42 2.425 0 0 1 1.364 2.384v2.704a.766.768 0 0 1-.766.762h-.058a.777.78 0 0 1-.755-.762v-2.675a1.265 1.268 0 0 0-1.282-1.244 1.334 1.338 0 0 0-1.346 1.232v2.635a.777.78 0 0 1-.76.797h-.046a.79.79 0 0 1-.79-.791v-2.629a1.265 1.268 0 0 0-1.282-1.244H13.6a1.213 1.215 0 0 0-1.276 1.163v2.808a.806.808 0 0 1-.784.71.795.797 0 0 1-.789-.715V20.69c0-1 .192-2 1.619-2.564a3.597 3.606 0 0 1 2.089-.1 3.812 3.82 0 0 1 1.218.728l.07.064zm-7.6 4.6a.76.762 0 0 0-.738-.774H4.694c-.163 0-.186-.128-.145-.273a4.566 4.577 0 0 1 1.903-2.227 4.433 4.443 0 0 1 2.228-.646c.168 0 .168.093.168.355v3.524a.824.826 0 0 0 .812.803.696.698 0 0 0 .731-.774v-4.425a1.097 1.1 0 0 0-.197-.733.905.907 0 0 0-.464-.256 7.473 7.49 0 0 0-2.739.268 6.812 6.827 0 0 0-3.957 3.355 4.549 4.56 0 0 0-.51 1.884.58.582 0 0 0 .476.67h4.514a.731.733 0 0 0 .742-.722zm18.612-1.937a.72.721 0 0 1 .69.82 3.174 3.181 0 0 1-3.179 2.175 3.307 3.315 0 0 1 0-6.63c1.486 0 2.739.728 3.157 2.077a.72.721 0 0 1-.697.913.702.704 0 0 1-.72-.518c-.249-.72-.933-.988-1.74-.988a1.845 1.85 0 1 0-.209 3.687h.21a1.74 1.745 0 0 0 1.74-1.065.731.733 0 0 1 .748-.47zm27.16 3.996a14.3 14.3 0 0 0-.836-.844c-2.32-2.204-5.291-3.832-8.186-5.408-2.774-1.518-5.646-3.082-7.856-5.135a5.489 5.501 0 0 1-.772-.884 5.86 5.874 0 0 1-.72-2.774c.14-2.85 1.358-4.722 3.812-5.891a17.923 17.964 0 0 1 5.03-1.454 13.09 13.12 0 0 1 1.637-.105 12.04 12.067 0 0 1 8.494 3.49.25.25 0 0 0 .186.081.25.25 0 0 0 .191-.401 8.703 8.723 0 0 0-.458-.954c-.238-.349-.8-1.093-.969-1.297C50.931.668 47.136 0 44.426 0a18.021 18.063 0 0 0-8.47 2.152c-2.948 1.64-4.532 3.675-4.84 6.24-.307 2.564.395 3.908 1.486 5.88.127.214.481.738.626.941 2.321 3.152 5.901 4.88 9.377 6.548 1.369.658 2.779 1.338 4.061 2.088a24.688 24.745 0 0 1 4.294 3.03c1.642 1.652 2.442 3.373 2.384 5.13-.191 5.634-7.543 9.414-12.602 9.886a20.638 20.686 0 0 1-4.95-.163c-1.856-.36-3.956-1.379-4.472-2.827a3.185 3.193 0 0 1 .214-2.692c1.16-2.204 4.555-3.693 7.317-4.362a23.672 23.727 0 0 1 5.535-.703c3.597 0 5.57.994 5.587 1.006a.244.244 0 0 0 .116 0 .25.25 0 0 0 .105-.471 4.827 4.838 0 0 0-.43-.303 6.817 6.833 0 0 0-.696-.477c-2.007-1.465-4.787-2.239-8.036-2.239-5.442 0-10.93 2.222-13.054 5.28a5.361 5.373 0 0 0-.325 5.717c1.584 3.123 5.448 5.234 9.863 5.339h1.74a14.737 14.771 0 0 0 1.95-.18c10.107-1.396 16.408-6.694 15.666-13.184a10.769 10.793 0 0 0-2.843-6.222z"></path></svg>